<?xml version="1.0" encoding="UTF-8"?>
<svg id="Layer_1" data-name="Layer 1" xmlns="http://www.w3.org/2000/svg" viewBox="0 0 216 216">
  <defs>
    <style>
      .cls-1 {
        fill: #e78824;
      }

      .cls-1, .cls-2 {
        stroke-width: 0px;
      }

      .cls-2 {
        fill: #b4333e;
      }
    </style>
  </defs>
  <path class="cls-1" d="m90.97,131.3c-1,1.85-2.29,3.87-3.93,5.95-3.73,4.7-7.83,7.77-10.98,9.71.81.1,1.96.19,3.33.11,2.36-.14,4.1-.72,5.03-1.04,2.08-.71,7.14-2.43,10.47-6.32,7.04-8.24,2.98-22.31,1.46-22.43-.64-.05-1.56,2.32-1.52,2.34.03.02.45-.75.6-.69.27.11-.58,2.9-1.15,4.6-.66,1.95-1.69,4.63-3.31,7.77Z"/>
  <path class="cls-2" d="m75.88,129.67c-8.75,2.76-17.49.8-21.77-4.78-.64-.83-3.09-4.23-3.05-8.74.04-5.38,3.61-10.78,5.35-13.41,1.25-1.89,3.57-5.06,3.16-9.06-.14-1.34-.62-3.38-4.74-8.74-4.26-5.53-5.12-5.13-8.81-9.84-5.92-7.56-6.45-12.09-6.55-13.7-.11-1.72.06-3.15.23-4.09,1.17,1.75,2.79,3.73,5.04,5.69,6.67,5.79,14.77,7.73,18.78,8.44,4.76,1.23,11.89,3.59,19.18,8.2,4.37,2.76,12.91,8.3,17.62,17.89,4.09,8.33,3.48,16.02,2.75,25.16-.48,6.05-1.17,5.39-1.52,10.71-.81,12.23,2.41,21.99,4.41,26.94,3.3,8.17,7.88,14.66,12.03,19.45-6.89-5.23-11.09-10.32-13.61-13.93-10.72-15.35-11.36-32.96-10.11-40.14.17-.97.78-4.06.56-8.23-.06-1.19-.31-4.85-1.81-9.51-1.42-4.38-3.82-11.81-11.46-18.67-6.35-5.71-13.62-8.6-18.47-10.07,1.64,1.83,4.03,5.07,4.91,9.49,1.78,8.98-4.07,15.86-5.47,17.41-.47.55-5.26,6.3-3.45,13.08,1.73,6.49,8.78,11.21,16.83,10.44Z"/>
  <path class="cls-2" d="m114.67,155.3c-4.29-17.42-2.87-31.78-.99-41.1,1.95-9.65,4.59-21.9,15.4-35.04,7.54-9.16,16.01-15.05,19.09-17.1,7.04-4.69,13.83-7.89,19.09-10.02-2.3,2.44-6.01,7.12-7.08,13.56-1.85,11.13,5.51,19.43,7.57,21.61,1.6,1.57,5.34,5.69,6.45,12.11.35,2.03,1.23,7.13-1.56,12.22-2.29,4.19-5.85,6.16-8,7.31-9.86,5.28-20.65,2.27-23.86,1.24,3.39.06,9.38-.37,15.45-3.86,2.55-1.47,6.73-3.96,8.94-8.9.6-1.34,1.57-3.6,1.2-6.54-.48-3.82-2.81-6.15-3.49-6.78,0,0-16.48-10.1-12.93-22.07-3.13,2.19-6.4,4.78-9.58,7.81-9.25,8.8-14.02,17.71-16.59,24.33-2.4,5.8-4.62,12.39-6.28,19.68-2.72,11.94-3.24,22.65-2.83,31.54Z"/>
  <path class="cls-1" d="m106.5,71.21h0s-.02-.03-.02-.03c-.18-.3-.28-.47-.29-.47,0-.01,0-.02,0-.04,0,0-5.91,16.81,1.86,19.28,0,0,.29.17.6-.03,6.28-3.69-.61-16.08-2.16-18.71Z"/>
  <path class="cls-1" d="m83.86,67.71s20.96-20.35,45.74-6.48c0,0-18.57-3.76-45.74,6.48Z"/>
  <path class="cls-1" d="m87.47,58.48s16.42-15.94,35.84-5.07c0,0-14.55-2.95-35.84,5.07Z"/>
  <path class="cls-1" d="m93.98,50.05s10.74-10.43,23.45-3.32c0,0-9.52-1.93-23.45,3.32Z"/>
  <path class="cls-2" d="m67.97,88.74s18.73,9.53,19.5,21.95c0,0-14.88-14.8-21.57-13.98s-2.02-10.85-2.02-10.85l4.09,2.88Z"/>
  <path class="cls-2" d="m151.93,78.75s-16.86,12.54-15.54,24.91c0,0,12.18-17.09,18.92-17.4s.17-11.04.17-11.04l-3.55,3.53Z"/>
  <path class="cls-2" d="m159.34,85.97s-12.14,9.03-11.19,17.94c0,0,8.77-12.31,13.62-12.53s.12-7.95.12-7.95l-2.55,2.54Z"/>
  <path class="cls-2" d="m67.51,99s13.11,6.67,13.66,15.37c0,0-10.42-10.36-15.1-9.79s-1.42-7.6-1.42-7.6l2.86,2.02Z"/>
  <path class="cls-1" d="m156.02,118.56s-3.78,2.82-4.26,8.27c-.07.79.02,6.4,4.26,8.28,3.26,1.44,6.94-.23,8.95-2.48,2.14-2.39,2.77-5.87,1.63-9.03-.4-.98-1.02-2.15-1.99-3.31-.3-.36-.6-.68-.89-.97l-.88.35c.48.9,1.29,2.73,1.05,5.03-.12,1.15-.31,2.98-1.82,4.11-.16.12-1.61,1.17-3.36.74-1.86-.45-2.68-2.22-2.96-2.84-.14-.29-.44-1.03-.53-2.16-.21-2.78,1.12-5.1,1.84-6.17l.56-.68s-1.37.66-1.61.86Z"/>
</svg>